<?xml version="1.0" standalone="no"?>
<!DOCTYPE svg PUBLIC "-//W3C//DTD SVG 20010904//EN"
 "http://www.w3.org/TR/2001/REC-SVG-20010904/DTD/svg10.dtd">
<svg version="1.0" xmlns="http://www.w3.org/2000/svg"
 width="1000.000000pt" height="1000.000000pt" viewBox="0 0 1000.000000 1000.000000"
 preserveAspectRatio="xMidYMid meet">
<metadata>
Created by potrace 1.11, written by Peter Selinger 2001-2013
</metadata>
<g transform="translate(0.000000,1000.000000) scale(0.100000,-0.100000)"
fill="#000000" stroke="none">
<path d="M5425 8524 c-14 -16 -151 -207 -305 -424 -246 -348 -279 -399 -274
-425 3 -16 9 -34 13 -40 5 -5 18 -26 28 -45 11 -19 89 -152 173 -295 84 -143
193 -328 242 -412 49 -83 95 -154 103 -157 18 -7 25 3 350 469 183 262 258
377 257 395 0 23 -109 215 -412 730 -37 63 -80 136 -94 162 -41 71 -51 76 -81
42z"/>
<path d="M4062 6567 c-178 -257 -698 -1004 -760 -1092 -27 -38 -118 -169 -202
-290 -84 -121 -231 -332 -327 -470 -96 -137 -314 -450 -484 -695 -171 -245
-379 -544 -463 -665 -229 -329 -565 -810 -683 -980 -57 -82 -150 -215 -205
-295 -56 -80 -126 -181 -157 -225 -30 -44 -101 -146 -158 -227 -60 -87 -100
-154 -97 -162 8 -22 1212 -18 1238 3 10 8 57 71 104 139 48 69 99 141 113 161
14 20 47 68 74 106 74 107 185 266 214 306 14 20 44 63 67 95 22 33 195 280
384 549 189 270 410 585 490 700 81 116 198 283 261 372 63 90 193 275 289
413 267 382 360 513 375 533 18 21 29 22 45 2 9 -11 271 -470 555 -970 12 -22
60 -105 105 -185 46 -80 94 -165 108 -190 14 -25 69 -121 122 -215 54 -93 106
-186 117 -205 11 -19 67 -118 125 -220 58 -102 117 -207 132 -235 16 -27 43
-75 62 -106 35 -58 41 -83 25 -94 -5 -3 -419 -5 -920 -5 l-911 -1 -30 -27
c-16 -15 -171 -227 -344 -471 -214 -302 -313 -448 -306 -456 7 -8 839 -11
3232 -11 3067 1 3223 2 3226 19 2 9 -67 142 -154 295 -86 152 -165 291 -174
307 -69 122 -876 1547 -975 1720 -16 28 -54 94 -84 148 -31 55 -65 115 -77
135 -11 21 -89 159 -173 307 -84 149 -179 315 -211 370 -31 55 -68 120 -82
145 -14 25 -62 110 -108 190 -45 80 -92 163 -104 185 -12 22 -79 140 -149 262
-70 123 -140 247 -156 275 -16 29 -69 123 -118 208 -49 85 -131 230 -183 323
-65 115 -100 167 -112 167 -21 0 -600 -803 -606 -842 -3 -20 29 -84 131 -265
74 -131 144 -254 155 -273 10 -19 55 -98 99 -175 44 -77 91 -160 105 -185 14
-25 62 -110 108 -190 45 -80 94 -165 108 -190 14 -25 99 -174 189 -333 90
-158 176 -311 192 -340 16 -28 56 -99 89 -157 33 -58 134 -235 225 -395 90
-159 204 -360 252 -445 144 -254 158 -281 147 -292 -13 -13 -1047 -18 -1084
-5 -23 7 -100 136 -494 825 -257 450 -476 833 -487 852 -44 80 -387 678 -406
710 -11 19 -29 51 -40 70 -10 19 -114 201 -230 404 -116 203 -211 371 -211
373 0 3 -8 17 -18 31 -11 15 -32 52 -49 82 -16 30 -72 129 -124 220 -53 91
-98 172 -102 180 -4 8 -15 29 -26 45 -10 17 -64 111 -121 210 -159 279 -194
335 -210 335 -8 -1 -75 -87 -148 -193z"/>
</g>
</svg>
